<?xml version="1.0" encoding="utf-8"?>
<!-- Generator: Adobe Illustrator 19.1.0, SVG Export Plug-In . SVG Version: 6.00 Build 0)  -->
<svg version="1.1" id="Livello_1" xmlns="http://www.w3.org/2000/svg" xmlns:xlink="http://www.w3.org/1999/xlink" x="0px" y="0px"
	 viewBox="0 0 40 40" style="enable-background:new 0 0 40 40;" xml:space="preserve">
<style type="text/css">
	.st0{fill:#FFF;}
</style>
<g>
	<path class="st0" d="M7.5,33.8c-0.3,0-0.7-0.1-1-0.4c-0.5-0.5-0.5-1.4,0-1.9l8-8c-1.5-1.9-2.2-4.2-2.2-6.6
		c0-5.9,4.8-10.8,10.8-10.8S33.8,11,33.8,16.9S29,27.7,23.1,27.7c-1.2,0-2.4-0.2-3.6-0.6c-0.7-0.2-1.1-1-0.8-1.7
		c0.2-0.7,1-1.1,1.7-0.8c0.9,0.3,1.7,0.5,2.7,0.5c4.4,0,8-3.6,8-8c0-4.4-3.6-8-8-8c-4.4,0-8,3.6-8,8c0,2.1,0.8,4.1,2.3,5.6
		c0,0,0.1,0.1,0.1,0.1c0.5,0.5,0.4,1.3-0.1,1.9l-8.9,8.9C8.2,33.7,7.9,33.8,7.5,33.8z"/>
</g>
</svg>
