<svg xmlns="http://www.w3.org/2000/svg" width="500" height="500" viewBox="-218 -218 500 500"><path fill="#E32428" d="M70.613 57.422l-1.801 16.876c0 3.617-7.828 4.814-12.047 8.438-2.403 1.198-9.025 6.02-9.025 6.02-1.815 1.198-4.821 3.014-12.665 16.868-.595 1.206-2.403 2.411-3.604 2.411-.603 0-1.805-.603-3.62-.603-2.403-.603-7.828-.603-9.632-.603-1.805 0-6.023 1.205-11.444 2.418-1.804.588-3.01 3.006-3.608 3.006-.603-.595-6.023-1.793-6.626-2.418-4.822-3.602-2.415-3.006-7.226-3.006l-7.236-1.206c-3.608-1.8-4.219-5.409-7.827-9.636-1.202-1.197 0-4.813-1.202-6.02-1.805-1.205 1.202-3.616 1.202-6.027 0 0-1.805-3.616 2.407-7.835 3.013-4.219 3.615-6.63 3.615-6.63h5.421s3.62-3.006 4.22-3.006l8.438-3.021c2.415-1.801 3.616-3.014 4.822-4.219.599 0 2.406-.603 6.023-.603 2.406 0 5.42-3.014 8.438-2.403 0 0 9.632 1.197 13.248 1.197 4.208 0 15.667-3.021 26.509-7.232 1.197-.595 3.616-1.205 4.219-1.205 1.206.61 1.801-.596 1.801-.596 1.801.596 2.418-.603 3.006.596 3.004-.587 4.194 3.022 4.194 8.439m82.534 43.975c-1.205 0-2.411-5.417-4.807-6.02-2.419-.603-3.624-1.197-6.027-2.41-3.021-1.809-4.227.603-7.232-.604-3.616-1.801-4.227-.603-6.63 0-4.814 1.206-2.411 1.801-5.425 3.609-3.616 1.808-4.211 7.232-4.211 7.232s-6.622 4.219-7.232-3.006l-1.206-5.425c-1.205-3.616-4.813-7.232-3.006-8.423l4.212-7.24c.61-2.411 1.808-4.814 1.197-7.232-1.197-2.419-1.793-5.409-2.418-6.63 0 0-1.793-5.417-.588-6.63 1.793-2.403 3.006-2.403 3.006-5.425-.587-5.409-1.197-9.025.61-14.45 1.793-3.616-1.808-10.25-1.808-10.25 1.197-6.023 3.616-5.421 3.616-15.061-.61-4.219 1.801-7.828-1.206-11.444 0 0-1.8-1.808-1.205-2.415l2.411-4.219c.61-3.018.61-6.023-1.198-9.041l-1.793-2.415v-4.215c1.198-3.612.588-6.626.588-9.644-.588-7.225-10.246-24.093-10.246-24.093-2.411-2.415-3.616-6.023-6.02-7.828-1.793-1.202-3.616-1.202-4.212-1.805-.603-.603-1.197-3.017-1.197-3.616-1.809-3.01-3.617-5.42-7.828-6.626 0 0-5.425-3.006-7.232-3.006-1.816 0-3.624-.603-4.822-1.206L68.82-79.94c-1.198-2.407-3.616-3.006-6.63-3.608 0 0-3.616-.603-7.232-.603-1.793 0-4.212-.599-6.02 0-.596.603-1.198.603-1.198.603l-4.211-1.805c-3.624-1.804-4.822-2.415-7.828-1.804-4.223 0-6.027 3.014-9.045 5.42-.603.603-6.626.603-7.827.603-1.805 0-3.018-.603-4.822-.603-2.414 0-4.219.603-9.632 3.018-1.805.599-6.023.599-6.023.599s-3.006.603-4.219 0c-3.014-.599-7.225-1.804-9.64-1.804-3.608 0-5.421 4.822-10.242 7.828-1.202 1.206-3.616.603-5.421 1.805-.603.603-1.805 4.219-3.01 4.821-5.421 4.219-7.225 9.64-12.047 9.041-1.201 0-5.421 2.411-6.023 3.014-4.219 3.608-6.622 7.828-6.622 7.828-2.415 3.616-4.219 9.64-4.219 12.047v3.01c0 9.64 0 21.083 3.609 27.709 2.415 5.421 14.461 14.462 20.484 14.462 1.805 0 2.411-1.805 3.616-1.805 1.805 0 3.007-1.205 3.609.599 0 0 1.804.603 3.017 1.206 3.014.603 4.818 1.201 7.226 1.201 5.421 0 14.461-10.841 15.064-14.461.599-5.421 1.804-14.458 1.804-17.468 0-4.219-2.414-6.626-3.62-7.828-1.201-1.804-1.804-1.804-2.403-4.219 0-3.01 2.403-4.219 3.006-4.821l9.041-3.006c3.609 0 11.444 6.023 14.458 2.407 0 0 2.414-.603 3.612 0 3.616 2.411 2.411 4.219 6.63 4.219 2.407 0 7.229-1.809 10.845-3.62h4.212c2.411 1.205.603 2.415 3.616 3.017 3.021.603 6.622 1.202 9.033 1.202l4.821-1.202c7.233 3.006 6.623 13.249 7.828 18.673 0 2.411-2.419 15.061-3.006 21.083l-3.616 2.415c-2.419 2.415-6.63-1.202-8.438-1.202-3.616 0-4.211 0-13.244 7.225l-4.822 1.201c-3.616 1.206-3.616 1.805-5.424 4.219-.6.603-4.818-2.415-4.818-2.415-4.821-2.411-9.041 3.612-11.444 3.612-9.033 0-9.033-3.01-13.854 3.014 0 0-10.841.603-12.047 1.206-4.215 1.804-5.421-.603-10.841 2.403-5.425 2.415-4.22 6.633-6.023 7.229.599 0-3.609-1.797-3.609-1.797-.603 0-1.804.599-3.017.599-3.609.603-9.633 6.63-9.633 6.63-10.845 5.417-21.686 32.531-21.686 37.948 0 2.411 1.202 5.417 2.411 8.431 1.206 1.808-1.201 3.616-1.201 5.425 0 1.793.603 4.821.603 7.232.599 3.006.599 6.027.599 7.827 0 0 3.62 10.85 7.832 13.245l3.014 1.808c1.205.596 4.219 3.014 4.219 3.014 3.018 6.02 7.225 10.247 11.444 12.055 3.612 1.198 5.424 0 9.033 0 2.414.595 6.626 4.821 6.626 4.821 1.201.588 2.41 1.793 4.215 2.396 6.023 4.227 9.644 6.027 13.252 6.027 3.616 0 6.626-1.801 9.64-3.617.603-.603 7.229-2.41 7.229-2.41l24.079-1.198c.61 0 1.815 0 3.624.595 1.808.604 3.616.604 5.424.604 4.822 0 7.828-1.809 9.629-2.411l3.021-2.411c1.198-1.815 4.212-4.219 4.814-4.219l3.014-.603c3.616-.603 7.827-1.206 11.444-4.822v.634c2.418-2.403 4.211-4.814 4.821-6.63 0 0 6.027 1.205 8.438 3.021l3.616 4.212c1.189 1.8 3.006 4.821 5.417 6.622 6.622 4.227 10.238 6.027 15.655 6.027 1.8 0 10.238-.596 11.443-.596l4.822-1.205c3.021 1.205 3.616 2.411 5.424 2.411 3.609 0 9.041-4.814 10.247-6.027l7.217-7.835 3.616-6.02c0-1.816 3.021-7.233 3.616-9.041-.595-7.226-1.197-4.814 0-6.63-4.229 1.204 4.194-5.418-6.045-8.44"/><path fill="#D7D8D8" d="M34.041-211.977c134.338 0 243.973 109.642 243.973 243.977 0 134.338-109.635 243.973-243.973 243.973-134.335 0-243.977-109.635-243.977-243.973 0-134.335 109.642-243.977 243.977-243.977m0-6.023c-137.955 0-250 112.045-250 250 0 137.956 112.045 250 250 250s250-112.045 250-250c0-137.955-112.045-250-250-250z"/></svg>