<svg id="Layer_1" xmlns="http://www.w3.org/2000/svg" viewBox="0 0 143 41.5"><style>.st0{fill:#e21c23}</style><path class="st0" d="M142.9 22c0-.4-.2-.7-.3-1-.2-.3-.5-.5-.5-.9l.2-.6c0-.5-.4-1-.5-1.5l-.6-1.7c-.3-.6-.5-1.2-.8-1.7-.5-.8-1.4-.9-1.8-1.2l-.4-.8c-1-.6-2-1.2-3.1-1.6-.3-.1-.8-.2-1.1-.3l-.6-.3c-.2 0-.3-.2-.5-.3-.4-.3-.8-.6-1.5-.6-.4 0-.6.1-1 .2h-.6l-.7-.1c-.3-.1-.3-.1-.5-.1-.5 0-1.3.1-1.7.3-.2.1-.4.5-.5.5 0 0-.7-.1-1.1-.1-.4 0-1.3.2-1.3.2-1.1.6-2.5 1.6-3.6 2.4-.3.2-.1.7-.3.8-.2.2-.9.1-1 .3-.8.8-1.5 1.9-1.9 2.9 0 0-.4 2-.5 2.1-.2.3-.4.6-.4.8 0 0-.4.7-.6 1.1-.3.6-.4 1.1-.5 1.4v1.2c0 .4.2.6.2.6 0 .4-.3.8-.3.9-.1.3-.2.6-.2 1 0 .3.7 3.9.7 3.9.4 1.2 1 2.1 1.6 3 .4.7.8 1.3 1.1 1.9.1.2.2.5.3.8.1.5.2 1.1.5 1.5.9.8 1.9 1.7 3.4 2.2l.9.1c.2 0 1.1 0 1.1.1 0 0 .2.4.4.6.4.4 1.1.8 1.1.8 1.1.2 2.4.3 2.9.3.3 0 .6-.1 1-.2.3-.2.6-.1.8-.2.3 0 .7-.4 1.4.1.1.1.3.1.5.1.9 0 2.4-.8 5.1-2.3.1 0 .3-.3.3-.3l.6-.2c.6-.3 1.5-.5 2-1.3 1.2-2 1.5-2.7 1.5-4.4 0-.8-.2-1.3-.6-1.8-.7-.8-1.7-.7-2.7-.7h-.3c-.1 0-1 0-1.3.5 0 0-.9 1.1-1.4 1.6-.5.6-.5.8-.9 1.3-.2.2-.7.5-.8.7-.2.3-.7.8-.7.8-.4.3-.9.2-1.4.2-.3 0-.5 0-.7.1-.2.1-.6.3-.8.3-.2.1-.7 0-.8 0-.1 0-.3 0-.5-.2-.4-.3-.6-.4-1.1-.4-.5 0-1.3-.2-1.3-.2l-1-1c-.3-.3-.9-.1-1.3-.2-1.3-.6-1.6-2-1.6-2s-.2-.6-.2-.8c0-.3-.3-1.1-.3-1.1-.2-.5-.3-.7-.3-1.4 0 0 1-.6 1.5-.6.1 0 .3 0 .5.1.3 0 .5.2.8.2.3 0 .6-.2.8-.3.2 0 .5-.1.5-.1.3 0 .6 0 .8.1.2.1.4.3.7.3.3 0 .5-.2 1.1-.4.3-.3.9-.4 1.1-.4 0 0 1.8.1 2.5.3 1.6.2 2.3.3 2.6.3.3 0 .5-.1 1.2-.3.4-.1.9-.3.9-.3.3 0 .8.1.9.1.3.2.7.3.8.3 1.3 0 3.2-1.1 3.3-2.7 0-.5.5-1 .7-1.7.3-.4.1-.7.1-1m-8.3-4.2c.7.3.8 1.2.8 1.9s-.4 1-.7 1.6c-.3.6-.9.4-1.3.5-1.2.5-2.5.7-3.1.7-.3 0-1.9-.7-2.3-.7-.4 0-1 .3-1.4.3-.3 0-1.1-.5-1.4-.5-.4 0-1.5.3-1.9.3-1 0-1.2-.3-1.2-1s.6-2.2 1.8-2.6c.3-.1 1.1.1 1.5-.2.2-.2.3-1.1.8-1.3 1.1-.7 3.3-1.3 3.7-1.3.5 0 1.1.5 1.6.8.3.1.8 0 1.1.1.6.5 1.4 1.1 2 1.4M115.3 19.4c0-.4-.1-.8-.3-1.2 0-.3-.2-.6-.2-.8v-.7-1.8c-.2-.5-.5-1-.8-1.3-.1-.1-.3-.2-.3-.3-.1-.2-.3-.3-.4-.5-.6-1.1-1.3-2.4-2.2-2.4-.4 0-.7.2-.9.3l-.5-.1c-.4-.3-.6-.4-.9-.4-.5 0-2.1.4-2.7.6l-.9.7c-.1.1-.2.6-.2.6s-.4-.1-.5-.1c-.4.1-1.3.1-1.6.5 0 0-.4.5-.6.7-.7.7-.8 1-1.4.9-.3 0-.4 0-.6-1.1-.2-1-.5-2.7-2.6-2.7h-1.2l-.8.5c-.3 0-.7-.8-1.2-.5l-3.3.2c-.5-.1-1.1-.3-1.4-.3-.5 0-.7.3-.9.4-1.3.3-2.2 1.7-2.2 2.7 0 .9.6 1.7 1.1 2.2.3.4 1.5 1.5 2.8 1.6.4 0 .7-.2 1.3-.4.2-.1.4-.3.4-.3s1.5.7 2.1 1.3c.5 1 .4 2.1.4 3.3v6.7l-.1 1c-.1.4-.2 1-.1 1.5 0 .4 0 1 .2 1.6 0 .2.1.5.1.6 0 0-.3 1.9-.5 2.6-.2.3-.7.6-1.1.8-.2.1-.4.3-.4.3l-.7-.2c-.5-.1-.8-.2-.9-.2-.5 0-2.4.3-2.5 2.4 0 .8.2 1.3.5 1.7 0 0 .9 1.3 1.5 1.3.3 0 .5-.1 1.2-.4.2-.1.4 0 .4 0s.5-.2.6-.1c.3.3.7.3 1 .3.3 0 .7.1 1.1 0 .2 0 .8-.4.8-.4.6.4 1.1.7 1.4.7h2.9c.4 0 .8 0 1.3-.3.2-.1.2-.4.3-.4l.7.3.9.3c.4 0 .7-.1 1-.2l.6-.1c.1 0 .5-.2.7-.1h.6c1.3-.1 2.2-1.9 2.2-2.7 0-.6-.3-1.3-.8-1.7-.3-.5-.9-.7-1.4-.8-.3 0-.6.1-.9.2-.2 0-.8.1-.8.1-.5 0-2 0-2.7-.3-.8-.3-1.7-1.1-2.1-1.6-.3-.5-.1-1.9 0-2.7 0-.3.1-.5.1-.8v-.8c.1-1 .1-2.9.1-2.9V26c0-.2-.1-.3-.1-.4 0-.2-.3-1.3.2-1.6.3-.3.2-.7.5-.9 1.1-.8 1.5-1.2 2-2.3.2-.5.5-1.2.5-1.2.3-.3 1.4-1 2.1-1.6.3-.5.5-.5.8-.7.4-.3.8-.4.8-.4l.2.4c0 .2-.1.4-.2.6-.3.7-.4 1.2-.4 1.6 0 1 1.4 2.9 2.3 3.4.4.2.8.3 1.2.4l.2.1c.3.3.5.5 1 .5.3 0 .8-.2 1.1-.6.3-.3.6 0 .8-.3 0 0 .4-.5.8-.7.4-.2.7-.4 1-.8.3-1 .5-1.7.5-2.1M88.1 37.4c0-2.6-2.1-2.7-3.3-2.8-.4 0-.8 0-.9-.1-.4-.2-.8-.5-.8-.8 0 0 .1-.6.2-1 .2-.8.1-1.3.1-1.5 0-.3.1-.7-.1-1.3 0-.2-.1-.3-.1-.4 0 0 .1-.3.1-.6.1-.3.1-.5.1-.8 0-.5-.2-.9-.3-1.3 0-.1-.1-.3-.1-.3v-.7-.5c0-.3 0-.8.1-1.1.1-.1.1-.3.2-.4.2-.3.5-.8.5-1.2 0 0 .3-4.4.3-4.8v-.3-2.3.2c0-.4-.2-.7-.3-.9V14c0-.8 0-1.8-.8-2.2-.8-.5-2.2-.6-2.5-.6-.3 0-.5 0-.8.1h-.5s-.3-.1-.5-.2c-.5-.3-.9-.5-1.2-.5-.3 0-.4.3-.7.5-.2 0-.8-.1-.8-.1l-.7-.2c-.5-.1-.7-.2-1-.2-1.2 0-3.9 2.9-3.9 4.3 0 .5.2 1 .6 1.4.8.8 2.1 1.2 2.7 1.2.5 0 .9-.2 1.1-.2l1 .6.4.1c.3.1.4.1.6.1.1 0 .5.1.6.1l.3.6s0 .5-.5.8l-.3.2-.3.2c-.2.7.2 1.3.4 1.8.1.1.3.5.3.6l-.2 1c-.1.5-.3 1.1-.2 1.6l.3.8c.1.2.3.5.3.5s-.7 2.4-1.2 3.3c-.5.8-1.1 1.6-1.7 2.4l-1.2 1.5c-.3.5-1.1 1.5-1.7 1.5h-2.2c-.9-.4-1.5-1.1-2.2-2.1-.4-.5-.3-2.3-.3-3.1 0-.3 0-.7.1-1.1.1-1 .2-1.6 0-2v-.1c-.2-.4-.4-.7-.5-.8-.1-.1-.1-.1-.1-.3 0-.2.5-2.1.5-2.1s.5-.5.5-.6l.2-.7c.1-.5-.3-.8-.6-1.3-.2-.2-.3-.5-.4-.6l-.1-.3v-1.1c0-.8.1-1 .3-1.4.2-.4.5-.8.5-1.7 0-.7-.1-1.8-.5-2.3-.2-.3-.3-.3-.5-.5-1.1-1.2-2.4-2-3.9-2-.3 0-.5.1-1 .2-.2 0-.3.4-.5.4l-1-.5c-.6-.2-.9-.3-1.1-.3-.4 0-2.7.8-2.7 2.2 0 .5 0 1.1-.1 1.6v.8c0 .5.3 1.1.9 1.7.6.6 1.7 1.3 2.5 1.3.4 0 .7-.2.8-.3.2-.1.8 1.1.8 3.7l.1 1.3c0 1 .1 1.8.1 1.8l-.1.3c-.1.2-.1.4-.1.8v5c0 .5.3.8.3 1.2l.2.6c.1.4.3 1 .3 1s2.9 6.9 5.9 6.9c.3 0 .6 0 .8-.1.1 0 .3-.4.4-.4 0 0 .3.4.5.5.4.1.7.3 1 .3.3 0 .7-.1 1.1-.3.2 0 .4-.2.5-.2l.5.1c.3.1.6.2.9.2.4 0 .6 0 .9-.1l.1-.1c.3-.3.8-.5 1.2-.8.5-.3 1.2-.9 1.2-.9.3-.2.9-.5 1.1-.8.1-.2.2-.1.2-.1s.2.2.2.4c.1.2.1.4.2.5l.1.2.2.1c.3.1 1 .3 1.3.4 1.1.5 1.4.7 1.6.7.3 0 .6-.1.7-.1l.8.3c.8.3 1.1.4 1.3.4.7 0 .9-.4 1.6-1.2l.5-.1s.2-.3.3-.3c.5 0 .8-.3 1-.5 0-.2.1-.6.1-1.3"/><path class="st0" d="M62.2 37.5c0-.9-.3-1.6-.8-2.1-.8-.8-.9-.5-1.5-.8h-1.3c-.3 0-1.2.2-1.8.3 0 0-.5.2-.7.3-.1 0-.6-.1-.6-.1-.5-.2-.4-.3-.7-.3H54l-.6-1c-.3-1 .1-1.6 0-1.9l.2-1.3c.3-.8.4-1.2.4-1.5 0-.5-.2-.8-.3-1-.1-.3-.2-.5.1-1.7.1-.4 0-1.1 0-1.1 0-.1-.1-.5-.2-.5-.1-.3-.3-.7-.3-.8l.3-.7c.2-.6.4-1 .4-1.3 0-.5-.2-.8-.4-1.1-.2-.4-.4-.9-.4-2.1v-4.6s.1-.3.3-.5c.1-.3.3-.6.4-1.1.1-.5 0-1 0-1.4v-.6c0-.3.2-.8.4-1.1.4-1.1.5-1.5.5-1.8 0-.3-.2-.7-.6-1.3-.2 0-.3-.3-.4-.4 0 0-.2-.9-.3-1.4-.2-.8-.4-1.6-.5-2.3V2l-.2-.2c-.1 0-.8-.8-1.5-.8-.5 0-.6 0-1.1.4h-.5s-.2-.4-.8-.4c-.4 0-1-.1-1.1.1l-1 .1c-.7-.4-.8-.5-1.1-.5-.3 0-.4.1-.6.1l-.7-.3c-.7-.4-1-.5-1.3-.5-1.7 0-3 3.1-2.9 4.5 0 2 1.2 2.6 2.1 3.2.1 0 .7-.1.8 0 .1 0 .2.6.3.7.3.3.6.2.9.2 0 0 0-.1.3-.2 0 0 .8.5 1.2.5s.5-.3.8-.6l.3.5c.1.3.1.6.3 1 0 0 .3.8.6 1.3l.2.5c-.1.3-.5.5-.5.8 0 .2.3.6.3.8v.8l-.2.5c-.2.3-.3.6-.3 1 0 .7.4 1.1.7 1.4.2.3.3.3.3.5 0 0-.1.4-.2.6-.1.3-.2.6-.2.9-.2.7 0 1.5.1 2 0 .1.2 1 .2 1.1l-.2 1.9V25c0 .3-.1.7-.1 1.1-.1.6-.2 1.2-.2 1.8l.5.5c.1.2-.3.7-.3.8 0 .1.1.4 0 .6-.1.3-.2.5-.2.9 0 .5 0 1-.1 1.5 0 .3-.1.7-.1.9 0 .2-.3.5-.3.7 0 .3-.1.8-.2 1l-.7-.3c-.7-.3-.9-.1-1.1-.1-.1 0-.5-.2-.8-.1-.6.1-1 .2-1.2.2 0 0-.2 0-.3-.1-.5-.1-.7-.1-1-.1-.8 0-1.4.4-1.8 1h-.3s-.5.2-.7.3c-.1 0-.6-.1-.6-.1-.5-.2-.4-.3-.7-.3H37l-.3-1c-.3-1-.2-1.6-.2-1.9l.2-1.3c.3-.8.4-1.2.4-1.5 0-.5-.2-.8-.3-1-.1-.3-.3-.5 0-1.7.1-.4 0-1.1 0-1.1 0-.1-.1-.5-.2-.5-.1-.3-.3-.7-.3-.8l.3-.7c.2-.6.3-1 .3-1.3 0-.5-.2-.8-.3-1.1-.2-.4-.4-.9-.4-2.1v-4.6s.1-.3.3-.5c.1-.3.3-.6.4-1.1.1-.5 0-1 0-1.4V11c0-.3.2-.8.4-1.1.4-1.1.5-1.5.5-1.8 0-.3-.2-.7-.6-1.3-.1-.2-.3-.4-.3-.5 0 0-.2-.9-.3-1.4-.2-.8-.4-1.6-.5-2.3v-.3l-.2-.3c-.1-.1-.8-.8-1.5-.8-.5 0-.6 0-1.1.4h-.5s-.2-.4-.8-.4c-.4 0-1-.1-1.1.1l-1 .1c-.7-.4-1.1-.5-1.4-.5-.3 0-.5.1-.7.1L27 .7c-.7-.4-1-.5-1.3-.5C23.8.2 22 3.3 22 4.7c0 2 1.3 2.6 2.2 3.2.1 0 .8.3.9.4.1 0 .1.2.2.3.3.3.5.4 1.1.4.5 0 .7-.4 1-.5 0 0 .7.7 1.2.7.4 0 .7-.3 1.1-.6l.3.3c.1.3.1.6.3 1 0 0 .3.8.6 1.3l.2.5c-.1.3-.5.5-.5.8 0 .2.3.6.3.8 0 .3.1.6 0 .8l-.2.5c-.2.3-.3.6-.3 1 0 .7.4 1.1.7 1.4.2.3.3.3.3.5 0 0-.1.4-.2.6-.1.3-.2.6-.2.9-.2.7 0 1.5.1 2 0 .1.2 1 .2 1.1l-.1 1.9v1.1c0 .3-.1.7-.1 1.1-.1.6-.2 1.2-.2 1.8l.5.5c.1.2-.3.7-.3.8 0 .1.1.4 0 .6-.1.3-.2.5-.2.9 0 .5-.1 1-.1 1.5 0 .3-.1.7 0 .9 0 .2-.1.5-.1.7 0 .3-.3.8-.5 1l-.8-.3c-.6-.3-.7-.1-.9-.1-.1 0-.5-.2-.6-.1-.5.1-.4.2-.5.2 0 0-.2 0-.3-.1-.4-.1-.5-.1-.8-.1-1.5 0-2.1 2.2-2.1 3.2 0 .7-.1 1.4.3 1.9.5.5.9.8 1.6.8.2 0 .8 0 1.3-.2.2-.1.5-.2.6-.2l.6.3c.2.3.5.5.8.5.3 0 .3 0 .6-.1.1 0 .7-.2.8-.1.6.3 1 .5 1.3.5.3 0 .5-.1 1-.3.2-.1.5-.2.6-.3 0 0 .3.1.7.2 1.5.2 2 .2 2.1.2.3 0 .5 0 .9-.2.1 0 .4-.1.4-.1s1 .2 1.3.2c.9.2.8.3.9.3.2 0 .5-.1 1.1-.4.3-.1 1.1-.2 1.1-.2.2.1.5.2.8.2.4 0 .7-.2 1-.5l.2-.2.3.1c.2.3.6.5.8.5.3 0 .6 0 .9-.1 0 0 .4-.2.5-.1.6.3 1 .5 1.3.5.3 0 .5-.1 1-.3.2-.1.6-.2.7-.3 0 0 1 .1 1.4.2 1.5.2 2 .2 2.1.2.3 0 .5 0 .9-.2.1 0 .4-.1.4-.1s1 .2 1.3.2c.9.2.8.3.9.3.2 0 .5-.1 1.1-.4.3-.1 1.1-.2 1.1-.2.2.1.5.2.8.2.4 0 .7-.2 1-.5 1-.6 1.5-1.8 1.5-2.4"/><path class="st0" d="M17.5 29.7l-.2 2.1c0 .4-1 .6-1.5 1.1-.3.2-1.1.7-1.1.7-.2.1-.6.4-1.6 2.1 0 .1-.3.3-.4.3 0 0-.3 0-.4-.1-.3 0-1-.1-1.2-.1-.3 0-.7.1-1.4.3-.2 0-.4.3-.5.4 0-.1-.7-.2-.8-.3-.6-.4-.3-.4-.9-.4l-.9-.2c-.5-.2-.5-.7-1-1.2-.1-.1 0-.6-.1-.7-.2-.2.2-.4.2-.7 0 0-.2-.4.3-1 .4-.5.5-.8.5-.8h.7s.4-.4.5-.4l1.1-.4c.2-.2.4-.4.6-.5.1 0 .3-.1.8-.1.3 0 .7-.4 1.1-.3 0 0 1.2.1 1.7.1s2-.4 3.3-.9c.1-.1.4-.1.5-.2.1 0 .3-.1.3 0 .2 0 .3 0 .4.1-.2 0 0 .5 0 1.1m10.3 5.5c-.1 0-.3-.7-.6-.7-.3-.1-.5-.1-.8-.3-.4-.2-.5.1-.9-.1-.5-.2-.5-.1-.8 0-.6.1-.3.2-.7.4-.5.3-.5.9-.5.9s-.8.5-.9-.4l-.3-.7c-.1-.5-.6-.9-.4-1.1l.5-.9c0-.3.3-.6.2-.9-.2-.3-.3-.7-.3-.8 0 0-.2-.7-.1-.8.2-.3.4-.3.4-.7-.1-.7-.2-1.1.1-1.8.2-.5-.2-1.3-.2-1.3.1-.8.5-.7.4-1.9 0-.5.2-1-.1-1.4 0 0-.2-.2-.1-.3l.3-.4c.1-.3.1-.7-.1-1.1l-.3-.3v-.5c.2-.5.1-.8.1-1.2-.1-.9-1.2-3-1.2-3-.3-.3-.4-.8-.7-1-.2-.1-.5-.1-.5-.2-.1 0-.1-.4-.1-.4-.2-.4-.5-.7-.9-.9 0 0-.6-.4-.9-.4-.2 0-.5-.1-.6-.2l-.3-.2c-.2-.3-.5-.4-.9-.5 0 0-.5-.1-.9-.1-.3 0-.5-.1-.7 0h-.2l-.5-.2c-.4-.2-.6-.3-1-.3-.5 0-.7.4-1.1.7-.1.1-.8.1-.9 0-.2 0-.3-.1-.6-.1s-.5 0-1.2.4c-.3.1-.8.1-.8.1s-.4.1-.5 0c-.3-.1-.9-.2-1.2-.2-.5 0-.6.6-1.3 1-.2.1-.5.1-.7.2-.1 0-.3.5-.3.6-.7.5-.9 1.2-1.5 1.2-.1 0-.6.3-.7.4-.5.4-.8 1-.8 1-.3.4-.6 1.2-.6 1.5v.4c0 1.2 0 2.6.4 3.5.1.7 1.6 1.8 2.4 1.8.2 0 .3-.2.5-.2s.4-.2.5.1c0 0 .2.1.3.1.3.1.6.2.9.1.7 0 1.8-1.4 1.9-1.8.1-.7.2-1.8.2-2.2 0-.5-.3-.8-.4-1-.3-.1-.4-.1-.4-.4 0-.4.3-.6.4-.6l1.1-.4c.5 0 1.5.7 1.8.3 0 0 .3-.1.4 0 .5.3.3.5.9.5.3 0 .9-.2 1.4-.5h.5c.3.2.1.3.4.4.3.1.8.1 1.1.2l.6-.1c.9.4.9 1.6.9 2.3 0 .3-.3 1.9-.4 2.7l-.5.2c-.3.3-.8-.2-1-.2-.4 0-.5 0-1.7.9l-.6.2c-.4.2-.5.2-.7.5-.1 0-.6-.3-.6-.3-.6-.3-1.1.5-1.5.5-.9 0-.9-.3-1.5.4 0 0-1.4.1-1.5.1-.5.2-.7-.1-1.4.3s-.6.9-.8.9l-.5-.2h-.4c-.4 0-1.2.8-1.2.8-1.2.8-2.6 4.2-2.6 4.8 0 .3.1.7.3 1 .1.3-.2.5-.1.7v.9c0 .4 0 .7.1 1 0 0 .4 1.3 1 1.7l.4.2c.1.1.5.4.5.4.4.7.9 1.3 1.4 1.5.4.2.7 0 1.1 0 .4.1.9.6.9.6.1.1.3.2.5.3.8.5 1.2.8 1.6.8.5 0 .8-.2 1.2-.4l.9-.3 3-.1h.5c.2 0 .5.1.7.1.6 0 1-.2 1.2-.3l.4-.3c.2-.2.5-.5.6-.5l.4-.1c.4-.1 1-.2 1.4-.6.3-.3.5-.6.6-.8 0 0 .7.2 1.1.4l.4.5c.2.3.4.6.7.8.8.5 1.3.8 1.9.8.3 0 1.3 0 1.4-.1l.6-.2c.4.2.4.3.7.3.5 0 1.1-.6 1.3-.7l.9-1 .5-.8c0-.2.4-.9.5-1.1-.1-.9-.2-.6 0-.9-.6.2.4-.6-.8-1"/></svg>